<?xml version="1.0" standalone="no"?><!-- Generator: Gravit.io --><svg xmlns="http://www.w3.org/2000/svg" xmlns:xlink="http://www.w3.org/1999/xlink" style="isolation:isolate" viewBox="0 0 1024 1024" width="1024" height="1024"><defs><clipPath id="_clipPath_pWt2rw8A0oMVTU9UaovlonhmDPA8jy02"><rect width="1024" height="1024"/></clipPath></defs><g clip-path="url(#_clipPath_pWt2rw8A0oMVTU9UaovlonhmDPA8jy02)"><clipPath id="_clipPath_KO8VqpaUuTrvxX8MGYOajTQaG6o0xzER"><rect x="0" y="0" width="1024" height="1024" transform="matrix(1,0,0,1,0,0)" fill="rgb(255,255,255)"/></clipPath><g clip-path="url(#_clipPath_KO8VqpaUuTrvxX8MGYOajTQaG6o0xzER)"><g><linearGradient id="_lgradient_0" x1="0.5" y1="0" x2="0.49999999999999983" y2="1" gradientTransform="matrix(902,0,0,902,61,61)" gradientUnits="userSpaceOnUse"><stop offset="0%" stop-opacity="1" style="stop-color:rgb(147,111,189)"/><stop offset="100%" stop-opacity="1" style="stop-color:rgb(83,41,131)"/></linearGradient><path d=" M 512 61 C 760.914 61 963 263.086 963 512 C 963 760.914 760.914 963 512 963 C 263.086 963 61 760.914 61 512 C 61 263.086 263.086 61 512 61 Z " fill="url(#_lgradient_0)"/><g><defs><filter id="RWS3NmQFkFnf3B7nyMb1XLqc1f85Eb7o" x="-200%" y="-200%" width="400%" height="400%" filterUnits="objectBoundingBox" color-interpolation-filters="sRGB"><feOffset xmlns="http://www.w3.org/2000/svg" in="SourceGraphic" dx="0" dy="0"/><feGaussianBlur xmlns="http://www.w3.org/2000/svg" stdDeviation="2.146804531419514" result="pf_100_offsetBlur"/><feComposite xmlns="http://www.w3.org/2000/svg" in="SourceGraphic" in2="pf_100_offsetBlur" result="pf_100_inverse" operator="out"/><feFlood xmlns="http://www.w3.org/2000/svg" flood-color="#000000" flood-opacity="0.5" result="pf_100_color"/><feComposite xmlns="http://www.w3.org/2000/svg" in="pf_100_color" in2="pf_100_inverse" operator="in" result="pf_100_shadow"/><feComposite xmlns="http://www.w3.org/2000/svg" in="pf_100_shadow" in2="SourceGraphic" operator="over"/></filter></defs><g filter="url(#RWS3NmQFkFnf3B7nyMb1XLqc1f85Eb7o)"><radialGradient id="_rgradient_0" fx="0.5" fy="0.0005000000000000004" cx="0.5" cy="0.5" r="0.5" gradientTransform="matrix(1839.93,1.833,0,824,-407.965,99.083)" gradientUnits="userSpaceOnUse"><stop offset="0%" stop-opacity="1" style="stop-color:rgb(92,86,142)"/><stop offset="100%" stop-opacity="1" style="stop-color:rgb(70,34,110)"/></radialGradient><path d=" M 924 512 C 924 739.389 739.389 924 512 924 C 284.611 924 100 739.389 100 512 C 100 284.611 284.611 100 512 100 C 739.389 100 924 284.611 924 512 Z " fill="url(#_rgradient_0)"/><clipPath id="_clipPath_y446LAcZin3VL3X0j10FgopiSJiASDAH"><path d=" M 924 512 C 924 739.389 739.389 924 512 924 C 284.611 924 100 739.389 100 512 C 100 284.611 284.611 100 512 100 C 739.389 100 924 284.611 924 512 Z " fill="url(#_rgradient_0)"/></clipPath><g clip-path="url(#_clipPath_y446LAcZin3VL3X0j10FgopiSJiASDAH)"><g filter="url(#1N4bTVosSEaDn7Ljol8qE2oLWy3wiD5Z)"><linearGradient id="_lgradient_1" x1="0.5" y1="0" x2="0.5000000000000001" y2="1" gradientTransform="matrix(645.672,0,0,502.118,203.858,254.98)" gradientUnits="userSpaceOnUse"><stop offset="1.3043478260869565%" stop-opacity="1" style="stop-color:rgb(246,224,152)"/><stop offset="98.26086956521739%" stop-opacity="1" style="stop-color:rgb(243,209,135)"/></linearGradient><path d=" M 238 360 C 295.197 285.459 375.604 257.821 477 255 C 578.52 253.771 646.196 309.114 680 421 C 687.544 471.569 684.554 519.246 671 564 C 675.111 576.014 683.121 583.691 695 587 C 715.324 582.169 729.334 569.513 737 549 C 736.711 489.315 733.721 442.992 728 410 C 747.516 373.313 773.859 370.323 807 401 C 861.984 489.569 863.66 571.912 812 648 C 785.405 684.18 746.415 708.19 695 720 C 652.148 718.82 617.824 714.163 592 706 C 486.826 769.085 386.836 773.762 292 720 C 205.635 611.833 173.334 488.563 238 360 Z " fill="url(#_lgradient_1)"/><g><defs><filter id="2HN0G8XN3zeUOhho5xlD1c9wa4en8BNj" x="-200%" y="-200%" width="400%" height="400%" filterUnits="objectBoundingBox" color-interpolation-filters="sRGB"><feGaussianBlur xmlns="http://www.w3.org/2000/svg" in="SourceGraphic" stdDeviation="2.146804531419514"/><feOffset xmlns="http://www.w3.org/2000/svg" dx="0" dy="0" result="pf_100_offsetBlur"/><feFlood xmlns="http://www.w3.org/2000/svg" flood-color="#000000" flood-opacity="0.65"/><feComposite xmlns="http://www.w3.org/2000/svg" in2="pf_100_offsetBlur" operator="in" result="pf_100_dropShadow"/><feBlend xmlns="http://www.w3.org/2000/svg" in="SourceGraphic" in2="pf_100_dropShadow" mode="normal"/></filter></defs><g filter="url(#2HN0G8XN3zeUOhho5xlD1c9wa4en8BNj)"><linearGradient id="_lgradient_2" x1="0.1464466094067262" y1="0.14644660940672627" x2="0.8535533905932737" y2="0.8535533905932737" gradientTransform="matrix(479.407,17.531,-5.674,155.161,127.17,642.247)" gradientUnits="userSpaceOnUse"><stop offset="0%" stop-opacity="1" style="stop-color:rgb(83,41,131)"/><stop offset="100%" stop-opacity="1" style="stop-color:rgb(70,34,110)"/></linearGradient><path d=" M 602.409 773.749 C 482.57 695.717 306.969 619.474 126.706 654.912 C 198.381 718.826 290.006 753.401 276.782 803.086 L 602.409 773.749 Z " fill="url(#_lgradient_2)"/></g><linearGradient id="_lgradient_3" x1="0.5" y1="0" x2="0.5000000000000001" y2="1" gradientTransform="matrix(643.775,-17.009,5.459,206.595,174.005,756.251)" gradientUnits="userSpaceOnUse"><stop offset="2.1739130434782608%" stop-opacity="1" style="stop-color:rgb(47,13,87)"/><stop offset="100%" stop-opacity="1" style="stop-color:rgb(26,5,54)"/></linearGradient><path d=" M 820.149 828.878 C 760.745 894.654 658.821 936.37 514.347 953.998 C 384.053 947.037 270.948 893.682 175 793.905 C 434.437 723.169 649.497 734.836 820.149 828.878 Z " fill="url(#_lgradient_3)"/><defs><filter id="BXhmmvqgGSEQGvuFbAh55y1tlVp7RhmC" x="-200%" y="-200%" width="400%" height="400%" filterUnits="objectBoundingBox" color-interpolation-filters="sRGB"><feGaussianBlur xmlns="http://www.w3.org/2000/svg" in="SourceGraphic" stdDeviation="2.146804531419514"/><feOffset xmlns="http://www.w3.org/2000/svg" dx="0" dy="0" result="pf_100_offsetBlur"/><feFlood xmlns="http://www.w3.org/2000/svg" flood-color="#000000" flood-opacity="0.65"/><feComposite xmlns="http://www.w3.org/2000/svg" in2="pf_100_offsetBlur" operator="in" result="pf_100_dropShadow"/><feBlend xmlns="http://www.w3.org/2000/svg" in="SourceGraphic" in2="pf_100_dropShadow" mode="normal"/></filter></defs><g filter="url(#BXhmmvqgGSEQGvuFbAh55y1tlVp7RhmC)"><linearGradient id="_lgradient_4" x1="0.1464466094067262" y1="0.14644660940672627" x2="0.8535533905932737" y2="0.8535533905932737" gradientTransform="matrix(454.954,-67.95,20.588,137.847,183.319,735.343)" gradientUnits="userSpaceOnUse"><stop offset="0%" stop-opacity="1" style="stop-color:rgb(83,41,131)"/><stop offset="100%" stop-opacity="1" style="stop-color:rgb(70,34,110)"/></linearGradient><path d=" M 653.396 768.646 C 527.357 720.669 349.042 683.971 185 746.594 C 263.265 790.499 355.436 805.054 351.273 851.18 L 653.396 768.646 Z " fill="url(#_lgradient_4)"/></g></g><defs><filter id="m6X23JoiORtNZvKUH9Rx46PYmr5ogQoN" x="-200%" y="-200%" width="400%" height="400%" filterUnits="objectBoundingBox" color-interpolation-filters="sRGB"><feGaussianBlur xmlns="http://www.w3.org/2000/svg" in="SourceGraphic" stdDeviation="2.146804531419514"/><feOffset xmlns="http://www.w3.org/2000/svg" dx="0" dy="0" result="pf_100_offsetBlur"/><feFlood xmlns="http://www.w3.org/2000/svg" flood-color="#000000" flood-opacity="0.65"/><feComposite xmlns="http://www.w3.org/2000/svg" in2="pf_100_offsetBlur" operator="in" result="pf_100_dropShadow"/><feBlend xmlns="http://www.w3.org/2000/svg" in="SourceGraphic" in2="pf_100_dropShadow" mode="normal"/></filter></defs><g filter="url(#m6X23JoiORtNZvKUH9Rx46PYmr5ogQoN)"><linearGradient id="_lgradient_5" x1="0.1464466094067262" y1="0.14644660940672627" x2="0.8535533905932737" y2="0.8535533905932737" gradientTransform="matrix(202.42,0,0,112.585,486,644)" gradientUnits="userSpaceOnUse"><stop offset="0%" stop-opacity="1" style="stop-color:rgb(255,255,255)"/><stop offset="97.82608695652173%" stop-opacity="1" style="stop-color:rgb(209,209,209)"/></linearGradient><path d=" M 523 644 C 548.476 652.094 565.102 674.42 586 681 C 619.78 682.401 650.155 665.915 668 673 C 687.177 680.298 692.854 695.975 685 720 C 650.656 778.986 497.06 764.977 486 690 C 490.825 659.361 503.168 644.038 523 644 Z " fill="url(#_lgradient_5)"/></g><defs><filter id="Dl2s3HUG22yT6WReGFcaeEMgG8j9LiD2" x="-200%" y="-200%" width="400%" height="400%" filterUnits="objectBoundingBox" color-interpolation-filters="sRGB"><feGaussianBlur xmlns="http://www.w3.org/2000/svg" in="SourceGraphic" stdDeviation="2.146804531419514"/><feOffset xmlns="http://www.w3.org/2000/svg" dx="0" dy="0" result="pf_100_offsetBlur"/><feFlood xmlns="http://www.w3.org/2000/svg" flood-color="#000000" flood-opacity="0.65"/><feComposite xmlns="http://www.w3.org/2000/svg" in2="pf_100_offsetBlur" operator="in" result="pf_100_dropShadow"/><feBlend xmlns="http://www.w3.org/2000/svg" in="SourceGraphic" in2="pf_100_dropShadow" mode="normal"/></filter></defs><g filter="url(#Dl2s3HUG22yT6WReGFcaeEMgG8j9LiD2)"><linearGradient id="_lgradient_6" x1="0.5" y1="0" x2="0.5000000000000001" y2="1" gradientTransform="matrix(231.001,0,0,347.279,157.999,366)" gradientUnits="userSpaceOnUse"><stop offset="0%" stop-opacity="1" style="stop-color:rgb(248,251,202)"/><stop offset="100%" stop-opacity="1" style="stop-color:rgb(253,255,194)"/></linearGradient><path d=" M 268 366 C 126.262 375.98 128.366 675.501 235 706 C 312.361 728.913 367.715 695.599 389 636 L 387 466 C 379.239 399.883 339.582 366.559 268 366 Z " fill="url(#_lgradient_6)"/></g></g><defs><filter id="1N4bTVosSEaDn7Ljol8qE2oLWy3wiD5Z" x="-200%" y="-200%" width="400%" height="400%" filterUnits="objectBoundingBox" color-interpolation-filters="sRGB"><feGaussianBlur xmlns="http://www.w3.org/2000/svg" in="SourceGraphic" stdDeviation="2.146804531419514"/><feOffset xmlns="http://www.w3.org/2000/svg" dx="0" dy="0" result="pf_100_offsetBlur"/><feFlood xmlns="http://www.w3.org/2000/svg" flood-color="#000000" flood-opacity="0.65"/><feComposite xmlns="http://www.w3.org/2000/svg" in2="pf_100_offsetBlur" operator="in" result="pf_100_dropShadow"/><feBlend xmlns="http://www.w3.org/2000/svg" in="SourceGraphic" in2="pf_100_dropShadow" mode="normal"/></filter></defs><path d=" M 617.754 487.937 C 590.587 462.68 563.765 462.695 537.246 487.937" fill="none" vector-effect="non-scaling-stroke" stroke-width="1" stroke="rgb(0,0,0)" stroke-linejoin="miter" stroke-linecap="square" stroke-miterlimit="3"/></g></g></g></g></g></g></svg>