<?xml version="1.0" standalone="no"?><!-- Generator: Gravit.io --><svg xmlns="http://www.w3.org/2000/svg" xmlns:xlink="http://www.w3.org/1999/xlink" style="isolation:isolate" viewBox="0 0 1024 1024" width="1024" height="1024"><defs><clipPath id="_clipPath_q6kEX0n4nd0B0IlFkI2S7W1htNzFE93R"><rect width="1024" height="1024"/></clipPath></defs><g clip-path="url(#_clipPath_q6kEX0n4nd0B0IlFkI2S7W1htNzFE93R)"><rect width="1024" height="1024" style="fill:rgb(0,0,0)" fill-opacity="0"/><defs><filter id="7RyXRV3Our2TkoR6VOQRmfDJZtUOwbWS" x="-200%" y="-200%" width="400%" height="400%" filterUnits="objectBoundingBox" color-interpolation-filters="sRGB"><feGaussianBlur xmlns="http://www.w3.org/2000/svg" in="SourceGraphic" stdDeviation="2.146804531419514"/><feOffset xmlns="http://www.w3.org/2000/svg" dx="0" dy="0" result="pf_100_offsetBlur"/><feFlood xmlns="http://www.w3.org/2000/svg" flood-color="#000000" flood-opacity="0.65"/><feComposite xmlns="http://www.w3.org/2000/svg" in2="pf_100_offsetBlur" operator="in" result="pf_100_dropShadow"/><feBlend xmlns="http://www.w3.org/2000/svg" in="SourceGraphic" in2="pf_100_dropShadow" mode="normal"/></filter></defs><g filter="url(#7RyXRV3Our2TkoR6VOQRmfDJZtUOwbWS)"><path d="M 154.825 39 L 869.175 39 C 888.671 39 904.5 54.829 904.5 74.325 L 904.5 949.675 C 904.5 969.171 888.671 985 869.175 985 L 154.825 985 C 135.329 985 119.5 969.171 119.5 949.675 L 119.5 74.325 C 119.5 54.829 135.329 39 154.825 39 Z" style="stroke:none;fill:#E8B15F;stroke-miterlimit:10;"/></g><rect x="119.5" y="487.5" width="785" height="49" transform="matrix(1,0,0,1,0,0)" fill="rgb(193,148,79)"/><path d="M 369.433 233 L 654.567 233 C 672.191 233 686.5 245.77 686.5 261.5 L 686.5 261.5 C 686.5 277.23 672.191 290 654.567 290 L 369.433 290 C 351.809 290 337.5 277.23 337.5 261.5 L 337.5 261.5 C 337.5 245.77 351.809 233 369.433 233 Z" style="stroke:none;fill:#5B492E;stroke-miterlimit:10;"/><path d="M 369.433 233 L 654.567 233 C 672.191 233 686.5 245.77 686.5 261.5 L 686.5 261.5 C 686.5 277.23 672.191 290 654.567 290 L 369.433 290 C 351.809 290 337.5 277.23 337.5 261.5 L 337.5 261.5 C 337.5 245.77 351.809 233 369.433 233 Z" style="stroke:none;fill:#5B492E;stroke-miterlimit:10;"/><path d="M 369.433 720 L 654.567 720 C 672.191 720 686.5 732.77 686.5 748.5 L 686.5 748.5 C 686.5 764.23 672.191 777 654.567 777 L 369.433 777 C 351.809 777 337.5 764.23 337.5 748.5 L 337.5 748.5 C 337.5 732.77 351.809 720 369.433 720 Z" style="stroke:none;fill:#5B492E;stroke-miterlimit:10;"/><path d="M 369.433 720 L 654.567 720 C 672.191 720 686.5 732.77 686.5 748.5 L 686.5 748.5 C 686.5 764.23 672.191 777 654.567 777 L 369.433 777 C 351.809 777 337.5 764.23 337.5 748.5 L 337.5 748.5 C 337.5 732.77 351.809 720 369.433 720 Z" style="stroke:none;fill:#5B492E;stroke-miterlimit:10;"/></g></svg>